<svg width="32" height="32" viewBox="0 0 32 32" xmlns="http://www.w3.org/2000/svg">
  <defs>
    <radialGradient id="oil1" cx="0.3" cy="0.3" r="0.7">
      <stop offset="0%" style="stop-color:#ff66cc;stop-opacity:0.9"/>
      <stop offset="40%" style="stop-color:#cc33ff;stop-opacity:0.8"/>
      <stop offset="100%" style="stop-color:#6633cc;stop-opacity:0.3"/>
    </radialGradient>
    <radialGradient id="oil2" cx="0.7" cy="0.4" r="0.6">
      <stop offset="0%" style="stop-color:#33ccff;stop-opacity:0.8"/>
      <stop offset="50%" style="stop-color:#3399cc;stop-opacity:0.6"/>
      <stop offset="100%" style="stop-color:#336699;stop-opacity:0.2"/>
    </radialGradient>
    <radialGradient id="oil3" cx="0.2" cy="0.8" r="0.5">
      <stop offset="0%" style="stop-color:#ffcc33;stop-opacity:0.7"/>
      <stop offset="60%" style="stop-color:#ff9933;stop-opacity:0.5"/>
      <stop offset="100%" style="stop-color:#cc6600;stop-opacity:0.1"/>
    </radialGradient>
    <radialGradient id="oil4" cx="0.8" cy="0.7" r="0.4">
      <stop offset="0%" style="stop-color:#66ff99;stop-opacity:0.6"/>
      <stop offset="70%" style="stop-color:#33cc66;stop-opacity:0.4"/>
      <stop offset="100%" style="stop-color:#009933;stop-opacity:0.1"/>
    </radialGradient>
  </defs>
  
  <!-- Black background -->
  <rect width="32" height="32" fill="#000000"/>
  
  <!-- Oil blob layers with organic shapes -->
  <ellipse cx="10" cy="12" rx="10" ry="7" fill="url(#oil1)" transform="rotate(-15 10 12)"/>
  <ellipse cx="22" cy="14" rx="6" ry="8" fill="url(#oil2)" transform="rotate(25 22 14)"/>
  <ellipse cx="8" cy="24" rx="5" ry="4" fill="url(#oil3)" transform="rotate(-30 8 24)"/>
  <ellipse cx="24" cy="22" rx="6" ry="7" fill="url(#oil4)" transform="rotate(45 24 22)"/>
  
  <!-- Additional smaller oil droplets -->
  <circle cx="16" cy="8" r="3" fill="url(#oil2)" opacity="0.4"/>
  <circle cx="6" cy="6" r="2" fill="url(#oil3)" opacity="0.5"/>
  <circle cx="26" cy="10" r="2.5" fill="url(#oil1)" opacity="0.3"/>
  
  <!-- Shimmer effect with subtle highlights -->
  <ellipse cx="12" cy="10" rx="2" ry="1" fill="#ffffff" opacity="0.2" transform="rotate(-20 12 10)"/>
  <ellipse cx="20" cy="16" rx="1.5" ry="0.8" fill="#ffffff" opacity="0.15" transform="rotate(30 20 16)"/>
</svg>